<svg xmlns="http://www.w3.org/2000/svg" width="1200" height="675" viewBox="0 0 1200 675" role="img" aria-labelledby="title desc">
  <title id="title">RMB-inspired financial corner frame</title>
  <desc id="desc">Original abstract corner ticks and fine rules for financial PPT or dashboard panels; not a banknote layout.</desc>
  <rect width="1200" height="675" fill="none"/>
  <g fill="none" stroke-linecap="round" stroke-linejoin="round">
    <g stroke="#BD0E2B" stroke-width="4">
      <path d="M74 132V74h58"/><path d="M1126 132V74h-58"/><path d="M74 543v58h58"/><path d="M1126 543v58h-58"/>
    </g>
    <g stroke="#D4A652" stroke-width="2" opacity="0.72">
      <path d="M104 154V104h50"/><path d="M1096 154V104h-50"/><path d="M104 521v50h50"/><path d="M1096 521v50h-50"/>
      <path d="M186 88h828M186 587h828M88 186v303M1112 186v303" opacity="0.42"/>
    </g>
    <g stroke="#496B61" stroke-width="1.5" opacity="0.36">
      <path d="M222 116h756M222 559h756" stroke-dasharray="14 16"/>
      <path d="M116 222v231M1084 222v231" stroke-dasharray="14 16"/>
    </g>
  </g>
</svg>
